<svg width="18" height="18" viewBox="0 0 18 18" fill="none" xmlns="http://www.w3.org/2000/svg">
<rect width="18" height="18" fill="white" fill-opacity="0.01" style="mix-blend-mode:multiply"/>
<path d="M14.625 12.375C14.2277 12.3769 13.8386 12.4878 13.5 12.6956L11.7619 10.9519C12.1663 10.3814 12.3835 9.69932 12.3835 9C12.3835 8.30068 12.1663 7.61863 11.7619 7.04813L13.5 5.30438C13.8386 5.51216 14.2277 5.62306 14.625 5.625C15.07 5.625 15.505 5.49304 15.875 5.24581C16.245 4.99857 16.5334 4.64717 16.7037 4.23604C16.874 3.8249 16.9186 3.3725 16.8318 2.93605C16.745 2.49959 16.5307 2.09868 16.216 1.78401C15.9013 1.46934 15.5004 1.25505 15.064 1.16823C14.6275 1.08142 14.1751 1.12597 13.764 1.29627C13.3528 1.46657 13.0014 1.75496 12.7542 2.12497C12.507 2.49498 12.375 2.92999 12.375 3.375C12.3769 3.77227 12.4878 4.1614 12.6956 4.5L10.9519 6.23813C10.3814 5.83369 9.69932 5.61645 9 5.61645C8.30068 5.61645 7.61863 5.83369 7.04813 6.23813L5.30438 4.5C5.51216 4.1614 5.62306 3.77227 5.625 3.375C5.625 2.92999 5.49304 2.49498 5.24581 2.12497C4.99857 1.75496 4.64717 1.46657 4.23604 1.29627C3.8249 1.12597 3.3725 1.08142 2.93605 1.16823C2.49959 1.25505 2.09868 1.46934 1.78401 1.78401C1.46934 2.09868 1.25505 2.49959 1.16823 2.93605C1.08142 3.3725 1.12597 3.8249 1.29627 4.23604C1.46657 4.64717 1.75496 4.99857 2.12497 5.24581C2.49498 5.49304 2.92999 5.625 3.375 5.625C3.77227 5.62306 4.1614 5.51216 4.5 5.30438L6.23813 7.04813C5.83369 7.61863 5.61645 8.30068 5.61645 9C5.61645 9.69932 5.83369 10.3814 6.23813 10.9519L4.5 12.6956C4.1614 12.4878 3.77227 12.3769 3.375 12.375C2.92999 12.375 2.49498 12.507 2.12497 12.7542C1.75496 13.0014 1.46657 13.3528 1.29627 13.764C1.12597 14.1751 1.08142 14.6275 1.16823 15.064C1.25505 15.5004 1.46934 15.9013 1.78401 16.216C2.09868 16.5307 2.49959 16.745 2.93605 16.8318C3.3725 16.9186 3.8249 16.874 4.23604 16.7037C4.64717 16.5334 4.99857 16.245 5.24581 15.875C5.49304 15.505 5.625 15.07 5.625 14.625C5.62306 14.2277 5.51216 13.8386 5.30438 13.5L7.04813 11.7619C7.61863 12.1663 8.30068 12.3835 9 12.3835C9.69932 12.3835 10.3814 12.1663 10.9519 11.7619L12.6956 13.5C12.4878 13.8386 12.3769 14.2277 12.375 14.625C12.375 15.07 12.507 15.505 12.7542 15.875C13.0014 16.245 13.3528 16.5334 13.764 16.7037C14.1751 16.874 14.6275 16.9186 15.064 16.8318C15.5004 16.745 15.9013 16.5307 16.216 16.216C16.5307 15.9013 16.745 15.5004 16.8318 15.064C16.9186 14.6275 16.874 14.1751 16.7037 13.764C16.5334 13.3528 16.245 13.0014 15.875 12.7542C15.505 12.507 15.07 12.375 14.625 12.375ZM9 11.25C8.55499 11.25 8.11998 11.118 7.74997 10.8708C7.37996 10.6236 7.09157 10.2722 6.92127 9.86104C6.75097 9.4499 6.70642 8.99751 6.79323 8.56105C6.88005 8.12459 7.09434 7.72368 7.40901 7.40901C7.72368 7.09434 8.12459 6.88005 8.56105 6.79323C8.99751 6.70642 9.4499 6.75097 9.86104 6.92127C10.2722 7.09157 10.6236 7.37996 10.8708 7.74997C11.118 8.11998 11.25 8.55499 11.25 9C11.25 9.59674 11.0129 10.169 10.591 10.591C10.169 11.0129 9.59674 11.25 9 11.25Z" fill="white" fill-opacity="0.72"/>
</svg>
