<svg width="18" height="18" viewBox="0 0 18 18" fill="none" xmlns="http://www.w3.org/2000/svg">
<rect width="18" height="18" fill="white" fill-opacity="0.01" style="mix-blend-mode:multiply"/>
<path d="M2.62688 15.75L6.22125 9L10.3275 12.6506C10.4561 12.7649 10.6091 12.8481 10.7749 12.8939C10.9407 12.9397 11.1148 12.947 11.2837 12.915C11.4543 12.8831 11.6151 12.8121 11.7537 12.7077C11.8923 12.6033 12.0048 12.4682 12.0825 12.3131L15.1875 6.13125L14.1638 5.625L11.0756 11.8125L6.96938 8.16188C6.84405 8.04533 6.6938 7.95891 6.53004 7.9092C6.36628 7.85949 6.19334 7.84779 6.02438 7.875C5.85752 7.90268 5.69905 7.96764 5.56076 8.06502C5.42247 8.16241 5.30791 8.28973 5.22562 8.4375L2.25 14.0625V1.125H1.125V15.75C1.125 16.0484 1.24353 16.3345 1.4545 16.5455C1.66548 16.7565 1.95163 16.875 2.25 16.875H16.875V15.75H2.62688Z" fill="white" fill-opacity="0.72"/>
</svg>
