<svg width="20" height="20" viewBox="0 0 20 20" fill="none" xmlns="http://www.w3.org/2000/svg">
<rect width="20" height="20" fill="white" fill-opacity="0.01" style="mix-blend-mode:multiply"/>
<path d="M4.375 5C4.72018 5 5 4.72018 5 4.375C5 4.02982 4.72018 3.75 4.375 3.75C4.02982 3.75 3.75 4.02982 3.75 4.375C3.75 4.72018 4.02982 5 4.375 5Z" fill="white"/>
<path d="M4.375 10C4.72018 10 5 9.72018 5 9.375C5 9.02982 4.72018 8.75 4.375 8.75C4.02982 8.75 3.75 9.02982 3.75 9.375C3.75 9.72018 4.02982 10 4.375 10Z" fill="white"/>
<path d="M4.375 15C4.72018 15 5 14.7202 5 14.375C5 14.0298 4.72018 13.75 4.375 13.75C4.02982 13.75 3.75 14.0298 3.75 14.375C3.75 14.7202 4.02982 15 4.375 15Z" fill="white"/>
<path d="M7.5 16.25H2.5V12.5H7.5V11.25H2.5V7.5H13.75V2.5C13.75 2.16848 13.6183 1.85054 13.3839 1.61612C13.1495 1.3817 12.8315 1.25 12.5 1.25H2.5C2.16848 1.25 1.85054 1.3817 1.61612 1.61612C1.3817 1.85054 1.25 2.16848 1.25 2.5V16.25C1.25 16.5815 1.3817 16.8995 1.61612 17.1339C1.85054 17.3683 2.16848 17.5 2.5 17.5H7.5V16.25ZM2.5 2.5H12.5V6.25H2.5V2.5Z" fill="white"/>
<path d="M17.5 10.625V12.1332C17.1074 11.4768 16.5496 10.9349 15.8822 10.5615C15.2147 10.1881 14.461 9.99635 13.6963 10.0053C12.9315 10.0142 12.1825 10.2236 11.524 10.6125C10.8655 11.0014 10.3205 11.5562 9.94337 12.2216C9.56628 12.887 9.37031 13.6396 9.37501 14.4044C9.37971 15.1691 9.58492 15.9193 9.97015 16.58C10.3554 17.2407 10.9072 17.7887 11.5704 18.1695C12.2337 18.5503 12.9852 18.7505 13.75 18.75V17.5C13.1864 17.5007 12.6331 17.349 12.1488 17.061C11.6644 16.7729 11.2669 16.3592 10.9984 15.8637C10.7299 15.3682 10.6004 14.8093 10.6237 14.2462C10.6469 13.6831 10.822 13.1368 11.1304 12.665C11.4387 12.1933 11.869 11.8138 12.3754 11.5666C12.8819 11.3194 13.4458 11.2138 14.0074 11.261C14.569 11.3081 15.1074 11.5062 15.5656 11.8344C16.0238 12.1625 16.3847 12.6085 16.6101 13.125H15V14.375H18.75V10.625H17.5Z" fill="white"/>
</svg>
