<svg width="20" height="20" viewBox="0 0 20 20" fill="none" xmlns="http://www.w3.org/2000/svg">
<rect width="20" height="20" fill="#F97066" fill-opacity="0.01" style="mix-blend-mode:multiply"/>
<path d="M6.5971 5.62494L5.625 6.59704L13.4029 14.3749L14.375 13.4028L6.5971 5.62494Z" fill="#F97066" fill-opacity="0.72"/>
<path d="M9.99992 1.24992C8.84886 1.24277 7.70783 1.46421 6.643 1.90141C5.57817 2.3386 4.61073 2.98285 3.79679 3.79679C2.98285 4.61073 2.3386 5.57817 1.90141 6.643C1.46421 7.70783 1.24277 8.84886 1.24992 9.99992C1.24277 11.151 1.46421 12.292 1.90141 13.3568C2.3386 14.4217 2.98285 15.3891 3.79679 16.2031C4.61073 17.017 5.57817 17.6612 6.643 18.0984C7.70783 18.5356 8.84886 18.7571 9.99992 18.7499C11.151 18.7571 12.292 18.5356 13.3568 18.0984C14.4217 17.6612 15.3891 17.017 16.2031 16.2031C17.017 15.3891 17.6612 14.4217 18.0984 13.3568C18.5356 12.292 18.7571 11.151 18.7499 9.99992C18.7571 8.84886 18.5356 7.70783 18.0984 6.643C17.6612 5.57817 17.017 4.61073 16.2031 3.79679C15.3891 2.98285 14.4217 2.3386 13.3568 1.90141C12.292 1.46421 11.151 1.24277 9.99992 1.24992ZM9.99992 17.4999C8.51656 17.4999 7.06652 17.0601 5.83315 16.2359C4.59978 15.4118 3.63848 14.2405 3.07083 12.87C2.50317 11.4996 2.35464 9.9916 2.64403 8.53675C2.93342 7.08189 3.64773 5.74552 4.69662 4.69662C5.74552 3.64773 7.08189 2.93342 8.53675 2.64403C9.9916 2.35464 11.4996 2.50317 12.87 3.07083C14.2405 3.63848 15.4118 4.59978 16.2359 5.83315C17.0601 7.06652 17.4999 8.51656 17.4999 9.99992C17.4941 11.9873 16.7021 13.8915 15.2968 15.2968C13.8915 16.7021 11.9873 17.4941 9.99992 17.4999Z" fill="#F97066" fill-opacity="0.72"/>
</svg>
