<svg width="960" height="342" viewBox="0 0 960 342" fill="none" xmlns="http://www.w3.org/2000/svg">
<rect width="927" height="1" fill="#1A1A1A"/>
<rect y="63" width="927" height="1" fill="#1A1A1A"/>
<rect y="126" width="927" height="1" fill="#1A1A1A"/>
<rect y="189" width="927" height="1" fill="#1A1A1A"/>
<rect y="252" width="927" height="1" fill="#1A1A1A"/>
<rect y="315" width="927" height="1" fill="#1A1A1A"/>
<path d="M843.673 125.088C843.673 124.536 844.121 124.088 844.673 124.088C845.225 124.088 845.673 124.536 845.673 125.088V144.088H843.673V125.088Z" fill="#EB5757"/>
<path d="M849 144.088H840.346V152.85H849V144.088Z" fill="#EB5757"/>
<path d="M843.673 152.85H845.673V171.85C845.673 172.402 845.225 172.85 844.673 172.85C844.121 172.85 843.673 172.402 843.673 171.85V152.85Z" fill="#EB5757"/>
<path d="M3.32715 137.008C3.32715 136.456 3.77486 136.008 4.32715 136.008C4.87943 136.008 5.32715 136.456 5.32715 137.008V156.008H3.32715V137.008Z" fill="#27AE60"/>
<path d="M8.65443 156.008H0V201.831H8.65443V156.008Z" fill="#27AE60"/>
<path d="M3.32715 201.831H5.32715V220.831C5.32715 221.383 4.87943 221.831 4.32715 221.831C3.77486 221.831 3.32715 221.383 3.32715 220.831V201.831Z" fill="#27AE60"/>
<path d="M262.095 60.7215C262.095 60.1692 262.542 59.7215 263.095 59.7215C263.647 59.7215 264.095 60.1692 264.095 60.7215V79.7215H262.095V60.7215Z" fill="#27AE60"/>
<path d="M267.422 79.7215H258.768V163.687H267.422V79.7215Z" fill="#27AE60"/>
<path d="M262.095 163.687H264.095V182.687C264.095 183.24 263.647 183.687 263.095 183.687C262.542 183.687 262.095 183.24 262.095 182.687V163.687Z" fill="#27AE60"/>
<path d="M608.272 55C608.272 54.4477 608.72 54 609.272 54C609.824 54 610.272 54.4477 610.272 55V64H608.272V55Z" fill="#27AE60"/>
<path d="M613.599 64H604.945V167.842H613.599V64Z" fill="#27AE60"/>
<path d="M608.272 167.842H610.272V176.842C610.272 177.394 609.824 177.842 609.272 177.842C608.72 177.842 608.272 177.394 608.272 176.842V167.842Z" fill="#27AE60"/>
<path d="M629.908 61.6751C629.908 61.1228 630.356 60.6751 630.908 60.6751C631.46 60.6751 631.908 61.1228 631.908 61.6751V70.6751H629.908V61.6751Z" fill="#27AE60"/>
<path d="M635.235 70.6751H626.581V174.517H635.235V70.6751Z" fill="#27AE60"/>
<path d="M629.908 174.517H631.908V183.517C631.908 184.069 631.46 184.517 630.908 184.517C630.356 184.517 629.908 184.069 629.908 183.517V174.517Z" fill="#27AE60"/>
<path d="M348.639 77.4092C348.639 76.857 349.087 76.4092 349.639 76.4092C350.191 76.4092 350.639 76.857 350.639 77.4092V86.4092H348.639V77.4092Z" fill="#27AE60"/>
<path d="M353.966 86.4092H345.312V152.709H353.966V86.4092Z" fill="#27AE60"/>
<path d="M348.639 152.709H350.639V161.709C350.639 162.261 350.191 162.709 349.639 162.709C349.087 162.709 348.639 162.261 348.639 161.709V152.709Z" fill="#27AE60"/>
<path d="M370.275 57.8608C370.275 57.3085 370.723 56.8608 371.275 56.8608C371.828 56.8608 372.275 57.3085 372.275 57.8608V66.8608H370.275V57.8608Z" fill="#27AE60"/>
<path d="M375.603 66.8608H366.948V145.437H375.603V66.8608Z" fill="#27AE60"/>
<path d="M370.275 145.437H372.275V154.437C372.275 154.99 371.828 155.437 371.275 155.437C370.723 155.437 370.275 154.99 370.275 154.437V145.437Z" fill="#27AE60"/>
<path d="M219.688 164.185C219.688 163.633 220.136 163.185 220.688 163.185C221.24 163.185 221.688 163.633 221.688 164.185V183.185H219.688V164.185Z" fill="#27AE60"/>
<path d="M225.015 183.185H216.361V229.485H225.015V183.185Z" fill="#27AE60"/>
<path d="M219.688 229.485H221.688V248.485C221.688 249.037 221.24 249.485 220.688 249.485C220.136 249.485 219.688 249.037 219.688 248.485V229.485Z" fill="#27AE60"/>
<path d="M240.458 117.46C240.458 116.907 240.906 116.46 241.458 116.46C242.011 116.46 242.458 116.907 242.458 117.46V136.46H240.458V117.46Z" fill="#27AE60"/>
<path d="M245.786 136.46H237.131V182.759H245.786V136.46Z" fill="#27AE60"/>
<path d="M240.458 182.759H242.458V201.759C242.458 202.311 242.011 202.759 241.458 202.759C240.906 202.759 240.458 202.311 240.458 201.759V182.759Z" fill="#27AE60"/>
<path d="M24.9634 138.464C24.9634 137.912 25.4111 137.464 25.9634 137.464C26.5157 137.464 26.9634 137.912 26.9634 138.464V157.464H24.9634V138.464Z" fill="#27AE60"/>
<path d="M30.2907 157.464H21.6362V158.464H30.2907V157.464Z" fill="#27AE60"/>
<path d="M24.9634 158.464H26.9634V177.464C26.9634 178.016 26.5157 178.464 25.9634 178.464C25.4111 178.464 24.9634 178.016 24.9634 177.464V158.464Z" fill="#27AE60"/>
<path d="M68.2354 240.949C68.2354 240.397 68.6831 239.949 69.2354 239.949C69.7876 239.949 70.2354 240.397 70.2354 240.949V249.949H68.2354V240.949Z" fill="#27AE60"/>
<path d="M73.5626 249.949H64.9082V250.949H73.5626V249.949Z" fill="#27AE60"/>
<path d="M68.2354 250.949H70.2354V259.949C70.2354 260.501 69.7876 260.949 69.2354 260.949C68.6831 260.949 68.2354 260.501 68.2354 259.949V250.949Z" fill="#27AE60"/>
<path d="M456.819 171.814C456.819 171.262 457.267 170.814 457.819 170.814C458.372 170.814 458.819 171.262 458.819 171.814V180.814H456.819V171.814Z" fill="#27AE60"/>
<path d="M462.147 180.814H453.492V181.814H462.147V180.814Z" fill="#27AE60"/>
<path d="M456.819 181.814H458.819V190.814C458.819 191.366 458.372 191.814 457.819 191.814C457.267 191.814 456.819 191.366 456.819 190.814V181.814Z" fill="#27AE60"/>
<path d="M89.8716 236.181C89.8716 235.629 90.3193 235.181 90.8716 235.181C91.4239 235.181 91.8716 235.629 91.8716 236.181V245.181H89.8716V236.181Z" fill="#27AE60"/>
<path d="M95.1989 245.181H86.5444V246.181H95.1989V245.181Z" fill="#27AE60"/>
<path d="M89.8716 246.181H91.8716V255.181C91.8716 255.733 91.4239 256.181 90.8716 256.181C90.3193 256.181 89.8716 255.733 89.8716 255.181V246.181Z" fill="#27AE60"/>
<path d="M478.456 167.046C478.456 166.494 478.903 166.046 479.456 166.046C480.008 166.046 480.456 166.494 480.456 167.046V176.046H478.456V167.046Z" fill="#27AE60"/>
<path d="M483.783 176.046H475.128V177.046H483.783V176.046Z" fill="#27AE60"/>
<path d="M478.456 177.046H480.456V186.046C480.456 186.598 480.008 187.046 479.456 187.046C478.903 187.046 478.456 186.598 478.456 186.046V177.046Z" fill="#27AE60"/>
<path d="M111.508 232.843C111.508 232.291 111.956 231.843 112.508 231.843C113.06 231.843 113.508 232.291 113.508 232.843V241.843H111.508V232.843Z" fill="#27AE60"/>
<path d="M116.835 241.843H108.181V242.843H116.835V241.843Z" fill="#27AE60"/>
<path d="M111.508 242.843H113.508V251.843C113.508 252.396 113.06 252.843 112.508 252.843C111.956 252.843 111.508 252.396 111.508 251.843V242.843Z" fill="#27AE60"/>
<path d="M500.092 163.708C500.092 163.156 500.54 162.708 501.092 162.708C501.644 162.708 502.092 163.156 502.092 163.708V172.708H500.092V163.708Z" fill="#27AE60"/>
<path d="M505.419 172.708H496.765V173.708H505.419V172.708Z" fill="#27AE60"/>
<path d="M500.092 173.708H502.092V182.708C502.092 183.261 501.644 183.708 501.092 183.708C500.54 183.708 500.092 183.261 500.092 182.708V173.708Z" fill="#27AE60"/>
<path d="M133.144 229.983C133.144 229.43 133.591 228.983 134.144 228.983C134.696 228.983 135.144 229.43 135.144 229.983V238.983H133.144V229.983Z" fill="#27AE60"/>
<path d="M138.471 238.983H129.816V239.983H138.471V238.983Z" fill="#27AE60"/>
<path d="M133.144 239.983H135.144V248.983C135.144 249.535 134.696 249.983 134.144 249.983C133.591 249.983 133.144 249.535 133.144 248.983V239.983Z" fill="#27AE60"/>
<path d="M521.728 160.848C521.728 160.295 522.175 159.848 522.728 159.848C523.28 159.848 523.728 160.295 523.728 160.848V169.848H521.728V160.848Z" fill="#27AE60"/>
<path d="M527.055 169.848H518.4V170.848H527.055V169.848Z" fill="#27AE60"/>
<path d="M521.728 170.848H523.728V179.848C523.728 180.4 523.28 180.848 522.728 180.848C522.175 180.848 521.728 180.4 521.728 179.848V170.848Z" fill="#27AE60"/>
<path d="M176.416 229.506C176.416 228.953 176.864 228.506 177.416 228.506C177.968 228.506 178.416 228.953 178.416 229.506V238.506H176.416V229.506Z" fill="#27AE60"/>
<path d="M181.743 238.506H173.089V239.506H181.743V238.506Z" fill="#27AE60"/>
<path d="M176.416 239.506H178.416V248.506C178.416 249.058 177.968 249.506 177.416 249.506C176.864 249.506 176.416 249.058 176.416 248.506V239.506Z" fill="#27AE60"/>
<path d="M391.911 66.9198C391.911 66.3675 392.359 65.9198 392.911 65.9198C393.463 65.9198 393.911 66.3675 393.911 66.9198V75.9198H391.911V66.9198Z" fill="#27AE60"/>
<path d="M397.238 75.9198H388.584V76.9198H397.238V75.9198Z" fill="#27AE60"/>
<path d="M391.911 76.9198H393.911V85.9198C393.911 86.4721 393.463 86.9198 392.911 86.9198C392.359 86.9198 391.911 86.4721 391.911 85.9198V76.9198Z" fill="#27AE60"/>
<path d="M413.547 75.0253C413.547 74.473 413.995 74.0253 414.547 74.0253C415.1 74.0253 415.547 74.473 415.547 75.0253V84.0253H413.547V75.0253Z" fill="#27AE60"/>
<path d="M418.875 84.0253H410.22V85.0253H418.875V84.0253Z" fill="#27AE60"/>
<path d="M413.547 85.0253H415.547V94.0253C415.547 94.5776 415.1 95.0253 414.547 95.0253C413.995 95.0253 413.547 94.5776 413.547 94.0253V85.0253Z" fill="#27AE60"/>
<path d="M198.052 232.367C198.052 231.814 198.499 231.367 199.052 231.367C199.604 231.367 200.052 231.814 200.052 232.367V241.367H198.052V232.367Z" fill="#27AE60"/>
<path d="M203.379 241.367H194.725V242.367H203.379V241.367Z" fill="#27AE60"/>
<path d="M198.052 242.367H200.052V251.367C200.052 251.919 199.604 252.367 199.052 252.367C198.499 252.367 198.052 251.919 198.052 251.367V242.367Z" fill="#27AE60"/>
<path d="M154.78 205.189C154.78 204.637 155.228 204.189 155.78 204.189C156.332 204.189 156.78 204.637 156.78 205.189V214.189H154.78V205.189Z" fill="#27AE60"/>
<path d="M160.107 214.189H151.453V234.717H160.107V214.189Z" fill="#27AE60"/>
<path d="M154.78 234.717H156.78V243.717C156.78 244.269 156.332 244.717 155.78 244.717C155.228 244.717 154.78 244.269 154.78 243.717V234.717Z" fill="#27AE60"/>
<path d="M543.364 138.439C543.364 137.886 543.811 137.439 544.364 137.439C544.916 137.439 545.364 137.886 545.364 138.439V147.439H543.364V138.439Z" fill="#27AE60"/>
<path d="M548.691 147.439H540.037V168.104H548.691V147.439Z" fill="#27AE60"/>
<path d="M543.364 168.104H545.364V177.104C545.364 177.656 544.916 178.104 544.364 178.104C543.811 178.104 543.364 177.656 543.364 177.104V168.104Z" fill="#27AE60"/>
<path d="M565 117.937C565 117.384 565.448 116.937 566 116.937C566.552 116.937 567 117.384 567 117.937V126.937H565V117.937Z" fill="#27AE60"/>
<path d="M570.327 126.937H561.673V147.602H570.327V126.937Z" fill="#27AE60"/>
<path d="M565 147.602H567V156.602C567 157.154 566.552 157.602 566 157.602C565.448 157.602 565 157.154 565 156.602V147.602Z" fill="#27AE60"/>
<path d="M715.587 178.012C715.587 177.46 716.035 177.012 716.587 177.012C717.139 177.012 717.587 177.46 717.587 178.012V187.012H715.587V178.012Z" fill="#27AE60"/>
<path d="M720.914 187.012H712.26V207.678H720.914V187.012Z" fill="#27AE60"/>
<path d="M715.587 207.678H717.587V216.678C717.587 217.23 717.139 217.678 716.587 217.678C716.035 217.678 715.587 217.23 715.587 216.678V207.678Z" fill="#27AE60"/>
<path d="M737.223 147.021C737.223 146.469 737.671 146.021 738.223 146.021C738.775 146.021 739.223 146.469 739.223 147.021V156.021H737.223V147.021Z" fill="#27AE60"/>
<path d="M742.55 156.021H733.896V176.686H742.55V156.021Z" fill="#27AE60"/>
<path d="M737.223 176.686H739.223V185.686C739.223 186.239 738.775 186.686 738.223 186.686C737.671 186.686 737.223 186.239 737.223 185.686V176.686Z" fill="#27AE60"/>
<path d="M758.859 129.856C758.859 129.304 759.307 128.856 759.859 128.856C760.412 128.856 760.859 129.304 760.859 129.856V138.856H758.859V129.856Z" fill="#27AE60"/>
<path d="M764.187 138.856H755.532V159.522H764.187V138.856Z" fill="#27AE60"/>
<path d="M758.859 159.522H760.859V168.522C760.859 169.074 760.412 169.522 759.859 169.522C759.307 169.522 758.859 169.074 758.859 168.522V159.522Z" fill="#27AE60"/>
<path d="M780.495 114.599C780.495 114.047 780.943 113.599 781.495 113.599C782.047 113.599 782.495 114.047 782.495 114.599V123.599H780.495V114.599Z" fill="#27AE60"/>
<path d="M785.822 123.599H777.168V144.265H785.822V123.599Z" fill="#27AE60"/>
<path d="M780.495 144.265H782.495V153.265C782.495 153.817 782.047 154.265 781.495 154.265C780.943 154.265 780.495 153.817 780.495 153.265V144.265Z" fill="#27AE60"/>
<path d="M822.902 114.599C822.902 114.047 823.35 113.599 823.902 113.599C824.455 113.599 824.902 114.047 824.902 114.599V123.599H822.902V114.599Z" fill="#27AE60"/>
<path d="M828.23 123.599H819.575V144.265H828.23V123.599Z" fill="#27AE60"/>
<path d="M822.902 144.265H824.902V153.265C824.902 153.817 824.455 154.265 823.902 154.265C823.35 154.265 822.902 153.817 822.902 153.265V144.265Z" fill="#27AE60"/>
<path d="M46.5991 143.206C46.5991 142.654 47.0468 142.206 47.5991 142.206C48.1514 142.206 48.5991 142.654 48.5991 143.206V162.206H46.5991V143.206Z" fill="#EB5757"/>
<path d="M51.9264 162.206H43.272V242.835H51.9264V162.206Z" fill="#EB5757"/>
<path d="M46.5991 242.835H48.5991V261.835C48.5991 262.387 48.1514 262.835 47.5991 262.835C47.0468 262.835 46.5991 262.387 46.5991 261.835V242.835Z" fill="#EB5757"/>
<path d="M435.184 76.9324C435.184 76.3801 435.631 75.9324 436.184 75.9324C436.736 75.9324 437.184 76.3801 437.184 76.9324V95.9324H435.184V76.9324Z" fill="#27AE60"/>
<path d="M440.511 95.9324H431.856V176.689H440.511V95.9324Z" fill="#27AE60"/>
<path d="M435.184 176.689H437.184V195.689C437.184 196.242 436.736 196.689 436.184 196.689C435.631 196.689 435.184 196.242 435.184 195.689V176.689Z" fill="#27AE60"/>
<path d="M283.731 65.0126C283.731 64.4603 284.179 64.0126 284.731 64.0126C285.283 64.0126 285.731 64.4603 285.731 65.0126V74.0126H283.731V65.0126Z" fill="#EB5757"/>
<path d="M289.058 74.0126H280.404V101.692H289.058V74.0126Z" fill="#EB5757"/>
<path d="M283.731 101.692H285.731V110.692C285.731 111.244 285.283 111.692 284.731 111.692C284.179 111.692 283.731 111.244 283.731 110.692V101.692Z" fill="#EB5757"/>
<path d="M305.367 91.713C305.367 91.1607 305.814 90.713 306.367 90.713C306.919 90.713 307.367 91.1607 307.367 91.713V100.713H305.367V91.713Z" fill="#EB5757"/>
<path d="M310.694 100.713H302.04V128.392H310.694V100.713Z" fill="#EB5757"/>
<path d="M305.367 128.392H307.367V137.392C307.367 137.944 306.919 138.392 306.367 138.392C305.814 138.392 305.367 137.944 305.367 137.392V128.392Z" fill="#EB5757"/>
<path d="M327.003 128.903C327.003 128.35 327.451 127.903 328.003 127.903C328.555 127.903 329.003 128.35 329.003 128.903V137.903H327.003V128.903Z" fill="#EB5757"/>
<path d="M332.33 137.903H323.676V165.582H332.33V137.903Z" fill="#EB5757"/>
<path d="M327.003 165.582H329.003V174.582C329.003 175.134 328.555 175.582 328.003 175.582C327.451 175.582 327.003 175.134 327.003 174.582V165.582Z" fill="#EB5757"/>
<path d="M586.636 125.565C586.636 125.013 587.084 124.565 587.636 124.565C588.189 124.565 588.636 125.013 588.636 125.565V144.565H586.636V125.565Z" fill="#EB5757"/>
<path d="M591.964 144.565H583.309V152.244H591.964V144.565Z" fill="#EB5757"/>
<path d="M586.636 152.244H588.636V171.244C588.636 171.797 588.189 172.244 587.636 172.244C587.084 172.244 586.636 171.797 586.636 171.244V152.244Z" fill="#EB5757"/>
<path d="M651.544 63.5823C651.544 63.03 651.992 62.5823 652.544 62.5823C653.097 62.5823 653.544 63.03 653.544 63.5823V72.5823H651.544V63.5823Z" fill="#EB5757"/>
<path d="M656.872 72.5823H648.217V153.009H656.872V72.5823Z" fill="#EB5757"/>
<path d="M651.544 153.009H653.544V162.009C653.544 162.561 653.097 163.009 652.544 163.009C651.992 163.009 651.544 162.561 651.544 162.009V153.009Z" fill="#EB5757"/>
<path d="M673.18 110.785C673.18 110.232 673.628 109.785 674.18 109.785C674.732 109.785 675.18 110.232 675.18 110.785V119.785H673.18V110.785Z" fill="#EB5757"/>
<path d="M678.507 119.785H669.853V200.211H678.507V119.785Z" fill="#EB5757"/>
<path d="M673.18 200.211H675.18V209.211C675.18 209.764 674.732 210.211 674.18 210.211C673.628 210.211 673.18 209.764 673.18 209.211V200.211Z" fill="#EB5757"/>
<path d="M694.816 136.055C694.816 135.502 695.264 135.055 695.816 135.055C696.369 135.055 696.816 135.502 696.816 136.055V155.055H694.816V136.055Z" fill="#EB5757"/>
<path d="M700.144 155.055H691.489V215.481H700.144V155.055Z" fill="#EB5757"/>
<path d="M694.816 215.481H696.816V234.481C696.816 235.033 696.369 235.481 695.816 235.481C695.264 235.481 694.816 235.033 694.816 234.481V215.481Z" fill="#EB5757"/>
<path d="M802.131 55C802.131 54.4477 802.579 54 803.131 54C803.684 54 804.131 54.4477 804.131 55V74H802.131V55Z" fill="#EB5757"/>
<path d="M807.459 74H798.804V134.427H807.459V74Z" fill="#EB5757"/>
<path d="M802.131 134.427H804.131V153.427C804.131 153.979 803.684 154.427 803.131 154.427C802.579 154.427 802.131 153.979 802.131 153.427V134.427Z" fill="#EB5757"/>
<path d="M941.611 13H940.387V5.944H938.815V4.888H941.611V13ZM943.208 8.956C943.208 6.268 944.276 4.768 946.196 4.768C948.116 4.768 949.196 6.268 949.196 8.956C949.196 11.644 948.14 13.12 946.196 13.12C944.252 13.12 943.208 11.644 943.208 8.956ZM944.456 8.956C944.456 10.96 945.056 12.028 946.196 12.028C947.336 12.028 947.948 10.972 947.948 8.956C947.948 6.928 947.336 5.86 946.196 5.86C945.08 5.86 944.456 6.928 944.456 8.956ZM950.428 8.956C950.428 6.268 951.496 4.768 953.416 4.768C955.336 4.768 956.416 6.268 956.416 8.956C956.416 11.644 955.36 13.12 953.416 13.12C951.472 13.12 950.428 11.644 950.428 8.956ZM951.676 8.956C951.676 10.96 952.276 12.028 953.416 12.028C954.556 12.028 955.168 10.972 955.168 8.956C955.168 6.928 954.556 5.86 953.416 5.86C952.3 5.86 951.676 6.928 951.676 8.956Z" fill="white" fill-opacity="0.44"/>
<path d="M949.195 70.72C949.195 72.136 947.995 73.108 946.231 73.108C944.455 73.108 943.243 72.136 943.243 70.72C943.243 69.736 943.915 69.088 944.767 68.776C944.083 68.476 943.567 67.84 943.567 67.012C943.567 65.692 944.671 64.768 946.231 64.768C947.767 64.768 948.883 65.692 948.883 67.012C948.883 67.84 948.355 68.476 947.683 68.776C948.535 69.088 949.195 69.736 949.195 70.72ZM944.815 67.048C944.815 67.84 945.391 68.32 946.231 68.32C947.059 68.32 947.635 67.84 947.635 67.048C947.635 66.244 947.059 65.74 946.231 65.74C945.391 65.74 944.815 66.244 944.815 67.048ZM944.515 70.696C944.515 71.596 945.211 72.136 946.231 72.136C947.239 72.136 947.947 71.596 947.947 70.696C947.947 69.82 947.239 69.292 946.231 69.292C945.211 69.292 944.515 69.82 944.515 70.696ZM950.428 68.956C950.428 66.268 951.496 64.768 953.416 64.768C955.336 64.768 956.416 66.268 956.416 68.956C956.416 71.644 955.36 73.12 953.416 73.12C951.472 73.12 950.428 71.644 950.428 68.956ZM951.676 68.956C951.676 70.96 952.276 72.028 953.416 72.028C954.556 72.028 955.168 70.972 955.168 68.956C955.168 66.928 954.556 65.86 953.416 65.86C952.3 65.86 951.676 66.928 951.676 68.956Z" fill="white" fill-opacity="0.44"/>
<path d="M946.425 133.108C944.709 133.108 943.461 131.908 943.461 130.432C943.461 129.4 943.833 128.752 944.529 127.912L946.977 124.888H948.357L945.969 127.864C946.209 127.78 946.449 127.732 946.665 127.732C948.249 127.732 949.401 128.8 949.401 130.372C949.401 131.908 948.165 133.108 946.425 133.108ZM946.437 132.088C947.397 132.088 948.141 131.416 948.141 130.408C948.141 129.34 947.397 128.692 946.437 128.692C945.489 128.692 944.733 129.268 944.733 130.396C944.733 131.416 945.489 132.088 946.437 132.088ZM950.428 128.956C950.428 126.268 951.496 124.768 953.416 124.768C955.336 124.768 956.416 126.268 956.416 128.956C956.416 131.644 955.36 133.12 953.416 133.12C951.472 133.12 950.428 131.644 950.428 128.956ZM951.676 128.956C951.676 130.96 952.276 132.028 953.416 132.028C954.556 132.028 955.168 130.972 955.168 128.956C955.168 126.928 954.556 125.86 953.416 125.86C952.3 125.86 951.676 126.928 951.676 128.956Z" fill="white" fill-opacity="0.44"/>
<path d="M949.346 191.212H948.242V193H947.03V191.212H943.13V190.36L947.306 184.888H948.242V190.156H949.346V191.212ZM944.486 190.156H947.03V186.724L944.486 190.156ZM950.428 188.956C950.428 186.268 951.496 184.768 953.416 184.768C955.336 184.768 956.416 186.268 956.416 188.956C956.416 191.644 955.36 193.12 953.416 193.12C951.472 193.12 950.428 191.644 950.428 188.956ZM951.676 188.956C951.676 190.96 952.276 192.028 953.416 192.028C954.556 192.028 955.168 190.972 955.168 188.956C955.168 186.928 954.556 185.86 953.416 185.86C952.3 185.86 951.676 186.928 951.676 188.956Z" fill="white" fill-opacity="0.44"/>
<path d="M949.249 251.92V253H944.005V252.304L946.537 249.568C947.497 248.524 947.869 247.96 947.869 247.228C947.869 246.424 947.305 245.86 946.477 245.86C945.577 245.86 944.977 246.448 944.977 247.348H943.789C943.789 245.848 944.917 244.768 946.525 244.768C948.037 244.768 949.141 245.752 949.141 247.084C949.141 248.008 948.793 248.656 947.461 250.072L945.829 251.92H949.249ZM950.428 248.956C950.428 246.268 951.496 244.768 953.416 244.768C955.336 244.768 956.416 246.268 956.416 248.956C956.416 251.644 955.36 253.12 953.416 253.12C951.472 253.12 950.428 251.644 950.428 248.956ZM951.676 248.956C951.676 250.96 952.276 252.028 953.416 252.028C954.556 252.028 955.168 250.972 955.168 248.956C955.168 246.928 954.556 245.86 953.416 245.86C952.3 245.86 951.676 246.928 951.676 248.956Z" fill="white" fill-opacity="0.44"/>
<path d="M950.428 308.956C950.428 306.268 951.496 304.768 953.416 304.768C955.336 304.768 956.416 306.268 956.416 308.956C956.416 311.644 955.36 313.12 953.416 313.12C951.472 313.12 950.428 311.644 950.428 308.956ZM951.676 308.956C951.676 310.96 952.276 312.028 953.416 312.028C954.556 312.028 955.168 310.972 955.168 308.956C955.168 306.928 954.556 305.86 953.416 305.86C952.3 305.86 951.676 306.928 951.676 308.956Z" fill="white" fill-opacity="0.44"/>
<path d="M6.3 330.384V336.036C6.3 337.98 5.16 339.18 3.24 339.18C1.356 339.18 0.228 337.992 0.18 336.24H1.512C1.56 337.332 2.136 337.992 3.24 337.992C4.356 337.992 4.968 337.344 4.968 336.096V330.384H6.3ZM11.9239 339V338.016C11.5279 338.724 10.8199 339.12 9.88388 339.12C8.56388 339.12 7.69987 338.364 7.69987 337.2C7.69987 335.952 8.69588 335.304 10.5919 335.304C10.9639 335.304 11.2639 335.316 11.7799 335.376V334.908C11.7799 333.996 11.2879 333.48 10.4479 333.48C9.55988 333.48 9.01987 334.008 8.98388 334.896H7.87987C7.93987 333.468 8.95988 332.52 10.4479 332.52C12.0199 332.52 12.9319 333.408 12.9319 334.92V339H11.9239ZM8.85188 337.164C8.85188 337.824 9.34388 338.256 10.1239 338.256C11.1439 338.256 11.7799 337.62 11.7799 336.648V336.132C11.3119 336.072 10.9759 336.06 10.6639 336.06C9.45187 336.06 8.85188 336.42 8.85188 337.164ZM15.8243 335.412V339H14.6123V332.64H15.7403V333.696C16.1723 332.988 16.8923 332.52 17.7683 332.52C19.0763 332.52 19.9403 333.36 19.9403 334.884V339H18.7283V335.292C18.7283 334.2 18.2483 333.588 17.3483 333.588C16.5203 333.588 15.8243 334.284 15.8243 335.412Z" fill="white" fill-opacity="0.44"/>
<path d="M84.6198 339H83.2998V330.384H88.5318V331.536H84.6198V334.344H87.9558V335.496H84.6198V339ZM92.2313 339.12C90.3953 339.12 89.1593 337.788 89.1593 335.784C89.1593 333.9 90.4433 332.52 92.1953 332.52C94.0913 332.52 95.3513 334.056 95.1353 336.12H90.3953C90.4913 337.416 91.1393 338.172 92.2073 338.172C93.1073 338.172 93.7313 337.68 93.9353 336.852H95.1353C94.8233 338.268 93.7313 339.12 92.2313 339.12ZM92.1713 333.432C91.1993 333.432 90.5393 334.128 90.4073 335.316H93.8513C93.7913 334.14 93.1553 333.432 92.1713 333.432ZM102.556 335.82C102.556 337.728 101.452 339.12 99.7359 339.12C98.8359 339.12 98.0679 338.664 97.6119 337.86V339H96.4839V330.384H97.6959V333.732C98.1399 332.952 98.8719 332.52 99.7359 332.52C101.44 332.52 102.556 333.888 102.556 335.82ZM101.296 335.82C101.296 334.38 100.54 333.588 99.4959 333.588C98.4879 333.588 97.6959 334.368 97.6959 335.796C97.6959 337.2 98.4639 338.04 99.4959 338.04C100.54 338.04 101.296 337.236 101.296 335.82Z" fill="white" fill-opacity="0.44"/>
<path d="M169.599 339L166.875 332.412V339H165.663V330.384H167.283L170.175 337.38L173.055 330.384H174.687V339H173.463V332.4L170.727 339H169.599ZM180.366 339V338.016C179.97 338.724 179.262 339.12 178.326 339.12C177.006 339.12 176.142 338.364 176.142 337.2C176.142 335.952 177.138 335.304 179.034 335.304C179.406 335.304 179.706 335.316 180.222 335.376V334.908C180.222 333.996 179.73 333.48 178.89 333.48C178.002 333.48 177.462 334.008 177.426 334.896H176.322C176.382 333.468 177.402 332.52 178.89 332.52C180.462 332.52 181.374 333.408 181.374 334.92V339H180.366ZM177.294 337.164C177.294 337.824 177.786 338.256 178.566 338.256C179.586 338.256 180.222 337.62 180.222 336.648V336.132C179.754 336.072 179.418 336.06 179.106 336.06C177.894 336.06 177.294 336.42 177.294 337.164ZM184.266 335.748V339H183.054V332.64H184.182V333.984C184.626 333.108 185.586 332.556 186.63 332.556V333.816C185.262 333.744 184.266 334.344 184.266 335.748Z" fill="white" fill-opacity="0.44"/>
<path d="M253.955 339L253.175 336.864H249.455L248.663 339H247.331L250.631 330.384H252.083L255.359 339H253.955ZM251.327 331.824L249.851 335.796H252.779L251.327 331.824ZM262.582 335.82C262.582 337.74 261.478 339.12 259.774 339.12C258.91 339.12 258.178 338.688 257.722 337.92V341.316H256.51V332.64H257.638V333.804C258.094 332.988 258.874 332.52 259.774 332.52C261.466 332.52 262.582 333.9 262.582 335.82ZM261.322 335.82C261.322 334.392 260.566 333.588 259.522 333.588C258.514 333.588 257.722 334.392 257.722 335.82C257.722 337.224 258.502 338.04 259.522 338.04C260.566 338.04 261.322 337.248 261.322 335.82ZM265.083 335.748V339H263.871V332.64H264.999V333.984C265.443 333.108 266.403 332.556 267.447 332.556V333.816C266.079 333.744 265.083 334.344 265.083 335.748Z" fill="white" fill-opacity="0.44"/>
<path d="M334.327 339L331.603 332.412V339H330.391V330.384H332.011L334.903 337.38L337.783 330.384H339.415V339H338.191V332.4L335.455 339H334.327ZM345.093 339V338.016C344.697 338.724 343.989 339.12 343.053 339.12C341.733 339.12 340.869 338.364 340.869 337.2C340.869 335.952 341.865 335.304 343.761 335.304C344.133 335.304 344.433 335.316 344.949 335.376V334.908C344.949 333.996 344.457 333.48 343.617 333.48C342.729 333.48 342.189 334.008 342.153 334.896H341.049C341.109 333.468 342.129 332.52 343.617 332.52C345.189 332.52 346.101 333.408 346.101 334.92V339H345.093ZM342.021 337.164C342.021 337.824 342.513 338.256 343.293 338.256C344.313 338.256 344.949 337.62 344.949 336.648V336.132C344.481 336.072 344.145 336.06 343.833 336.06C342.621 336.06 342.021 336.42 342.021 337.164ZM352.863 332.64L349.683 341.316H348.363L349.275 338.916L346.767 332.64H348.075L349.923 337.488L351.639 332.64H352.863Z" fill="white" fill-opacity="0.44"/>
<path d="M418.118 330.384V336.036C418.118 337.98 416.978 339.18 415.058 339.18C413.174 339.18 412.046 337.992 411.998 336.24H413.33C413.378 337.332 413.954 337.992 415.058 337.992C416.174 337.992 416.786 337.344 416.786 336.096V330.384H418.118ZM423.862 336.384V332.64H425.074V339H423.946V337.992C423.61 338.652 422.866 339.12 422.002 339.12C420.718 339.12 419.83 338.364 419.83 336.732V332.64H421.042V336.492C421.042 337.596 421.594 338.052 422.386 338.052C423.202 338.052 423.862 337.38 423.862 336.384ZM428.029 335.412V339H426.817V332.64H427.945V333.696C428.377 332.988 429.097 332.52 429.973 332.52C431.281 332.52 432.145 333.36 432.145 334.884V339H430.933V335.292C430.933 334.2 430.453 333.588 429.553 333.588C428.725 333.588 428.029 334.284 428.029 335.412Z" fill="white" fill-opacity="0.44"/>
<path d="M500.482 330.384V336.036C500.482 337.98 499.342 339.18 497.422 339.18C495.538 339.18 494.41 337.992 494.362 336.24H495.694C495.742 337.332 496.318 337.992 497.422 337.992C498.538 337.992 499.15 337.344 499.15 336.096V330.384H500.482ZM506.226 336.384V332.64H507.438V339H506.31V337.992C505.974 338.652 505.23 339.12 504.366 339.12C503.082 339.12 502.194 338.364 502.194 336.732V332.64H503.406V336.492C503.406 337.596 503.958 338.052 504.75 338.052C505.566 338.052 506.226 337.38 506.226 336.384ZM510.405 339H509.181V330.384H510.405V339Z" fill="white" fill-opacity="0.44"/>
<path d="M583.409 339L582.629 336.864H578.909L578.117 339H576.785L580.085 330.384H581.537L584.813 339H583.409ZM580.781 331.824L579.305 335.796H582.233L580.781 331.824ZM589.703 336.384V332.64H590.915V339H589.787V337.992C589.451 338.652 588.707 339.12 587.843 339.12C586.559 339.12 585.671 338.364 585.671 336.732V332.64H586.883V336.492C586.883 337.596 587.435 338.052 588.227 338.052C589.043 338.052 589.703 337.38 589.703 336.384ZM595.202 341.448C593.534 341.448 592.454 340.56 592.382 339.12H593.558C593.63 340.008 594.206 340.488 595.19 340.488C596.282 340.488 596.858 339.9 596.858 338.808V337.656C596.498 338.424 595.778 338.868 594.914 338.868C593.33 338.868 592.202 337.56 592.202 335.688C592.202 333.792 593.282 332.52 594.878 332.52C595.79 332.52 596.51 332.964 596.942 333.768V332.64H598.07V338.784C598.07 340.452 597.002 341.448 595.202 341.448ZM593.426 335.688C593.426 337.008 594.074 337.812 595.13 337.812C596.162 337.812 596.858 336.984 596.858 335.724C596.858 334.404 596.174 333.564 595.13 333.564C594.086 333.564 593.426 334.38 593.426 335.688Z" fill="white" fill-opacity="0.44"/>
<path d="M666.145 336.48C666.145 337.98 664.945 339.12 662.857 339.12C660.781 339.12 659.521 337.98 659.413 336.264H660.757C660.817 337.356 661.513 338.064 662.833 338.064C663.925 338.064 664.741 337.548 664.741 336.66C664.741 335.94 664.273 335.58 663.277 335.364L662.029 335.124C660.817 334.884 659.713 334.272 659.713 332.808C659.713 331.356 660.985 330.264 662.773 330.264C664.561 330.264 665.917 331.356 666.025 333.072H664.681C664.609 332.04 663.865 331.32 662.785 331.32C661.669 331.32 661.057 331.98 661.057 332.724C661.057 333.54 661.765 333.828 662.569 333.996L663.841 334.248C665.317 334.548 666.145 335.196 666.145 336.48ZM670.253 339.12C668.417 339.12 667.181 337.788 667.181 335.784C667.181 333.9 668.465 332.52 670.217 332.52C672.113 332.52 673.373 334.056 673.157 336.12H668.417C668.513 337.416 669.161 338.172 670.229 338.172C671.129 338.172 671.753 337.68 671.957 336.852H673.157C672.845 338.268 671.753 339.12 670.253 339.12ZM670.193 333.432C669.221 333.432 668.561 334.128 668.429 335.316H671.873C671.813 334.14 671.177 333.432 670.193 333.432ZM680.578 335.82C680.578 337.74 679.474 339.12 677.77 339.12C676.906 339.12 676.174 338.688 675.718 337.92V341.316H674.506V332.64H675.634V333.804C676.09 332.988 676.87 332.52 677.77 332.52C679.462 332.52 680.578 333.9 680.578 335.82ZM679.318 335.82C679.318 334.392 678.562 333.588 677.518 333.588C676.51 333.588 675.718 334.392 675.718 335.82C675.718 337.224 676.498 338.04 677.518 338.04C678.562 338.04 679.318 337.248 679.318 335.82Z" fill="white" fill-opacity="0.44"/>
<path d="M746.085 339.18C743.589 339.18 741.705 337.224 741.705 334.68C741.705 332.136 743.589 330.204 746.085 330.204C748.581 330.204 750.465 332.136 750.465 334.68C750.465 337.224 748.581 339.18 746.085 339.18ZM746.085 337.992C747.909 337.992 749.097 336.528 749.097 334.68C749.097 332.832 747.909 331.392 746.085 331.392C744.261 331.392 743.073 332.832 743.073 334.68C743.073 336.528 744.261 337.992 746.085 337.992ZM754.302 339.132C752.562 339.132 751.338 337.764 751.338 335.82C751.338 333.9 752.586 332.52 754.302 332.52C755.874 332.52 757.014 333.564 757.242 335.22H755.97C755.838 334.2 755.202 333.588 754.314 333.588C753.27 333.588 752.586 334.476 752.586 335.82C752.586 337.176 753.27 338.052 754.314 338.052C755.214 338.052 755.838 337.452 755.982 336.42H757.242C757.026 338.1 755.898 339.132 754.302 339.132ZM762.11 337.824V338.892C761.738 339.06 761.414 339.12 761.03 339.12C759.854 339.12 759.038 338.484 759.038 337.08V333.672H757.634V332.64H759.038V330.756H760.25V332.64H762.17V333.672H760.25V336.804C760.25 337.68 760.67 337.992 761.318 337.992C761.606 337.992 761.858 337.944 762.11 337.824Z" fill="white" fill-opacity="0.44"/>
<path d="M830.332 339L825.796 332.268V339H824.572V330.384H826.012L830.44 336.936V330.384H831.664V339H830.332ZM836.153 339.12C834.353 339.12 833.033 337.704 833.033 335.82C833.033 333.936 834.353 332.52 836.153 332.52C837.953 332.52 839.273 333.936 839.273 335.82C839.273 337.704 837.953 339.12 836.153 339.12ZM836.153 338.052C837.197 338.052 838.025 337.212 838.025 335.82C838.025 334.428 837.197 333.6 836.153 333.6C835.109 333.6 834.293 334.428 834.293 335.82C834.293 337.212 835.109 338.052 836.153 338.052ZM845.65 332.64L843.262 339H841.942L839.554 332.64H840.862L842.626 337.608L844.414 332.64H845.65Z" fill="white" fill-opacity="0.44"/>
<path d="M909.66 339H906.936V330.384H909.66C912.408 330.384 913.992 332.136 913.992 334.656C913.992 337.14 912.348 339 909.66 339ZM908.256 331.524V337.86H909.6C911.58 337.86 912.648 336.636 912.648 334.656C912.648 332.712 911.592 331.524 909.6 331.524H908.256ZM917.954 339.12C916.118 339.12 914.882 337.788 914.882 335.784C914.882 333.9 916.166 332.52 917.918 332.52C919.814 332.52 921.074 334.056 920.858 336.12H916.118C916.214 337.416 916.862 338.172 917.93 338.172C918.83 338.172 919.454 337.68 919.658 336.852H920.858C920.546 338.268 919.454 339.12 917.954 339.12ZM917.894 333.432C916.922 333.432 916.262 334.128 916.13 335.316H919.574C919.514 334.14 918.878 333.432 917.894 333.432ZM924.597 339.132C922.857 339.132 921.633 337.764 921.633 335.82C921.633 333.9 922.881 332.52 924.597 332.52C926.169 332.52 927.309 333.564 927.537 335.22H926.265C926.133 334.2 925.497 333.588 924.609 333.588C923.565 333.588 922.881 334.476 922.881 335.82C922.881 337.176 923.565 338.052 924.609 338.052C925.509 338.052 926.133 337.452 926.277 336.42H927.537C927.321 338.1 926.193 339.132 924.597 339.132Z" fill="white" fill-opacity="0.44"/>
</svg>
