<svg width="40" height="40" viewBox="0 0 40 40" fill="none" xmlns="http://www.w3.org/2000/svg">
<circle cx="20" cy="20" r="20" fill="#EDF0F4"/>
<path d="M26.0005 15.983C25.5741 15.7377 25.0258 15.7377 24.5384 15.983L21.1267 18.0068L18.8117 19.2946L15.4609 21.3183C15.0345 21.5636 14.4862 21.5636 13.9988 21.3183L11.3791 19.7239C10.9527 19.4786 10.6481 18.988 10.6481 18.436V15.3698C10.6481 14.8792 10.8918 14.3886 11.3791 14.0819L13.9988 12.5488C14.4253 12.3035 14.9736 12.3035 15.4609 12.5488L18.0806 14.1433C18.5071 14.3886 18.8117 14.8792 18.8117 15.4311V17.4548L21.1267 16.1057V14.0206C21.1267 13.53 20.8831 13.0394 20.3957 12.7328L15.5219 9.85048C15.0954 9.60518 14.5471 9.60518 14.0597 9.85048L9.06408 12.7941C8.5767 13.0394 8.33301 13.53 8.33301 14.0206V19.7852C8.33301 20.2758 8.5767 20.7664 9.06408 21.073L13.9988 23.9553C14.4253 24.2006 14.9736 24.2006 15.4609 23.9553L18.8117 21.9929L21.1267 20.6438L24.4775 18.6813C24.9039 18.436 25.4522 18.436 25.9396 18.6813L28.5593 20.2145C28.9857 20.4598 29.2904 20.9504 29.2904 21.5023V24.5686C29.2904 25.0592 29.0467 25.5498 28.5593 25.8564L26.0005 27.3896C25.5741 27.6349 25.0258 27.6349 24.5384 27.3896L21.9187 25.8564C21.4923 25.6111 21.1877 25.1205 21.1877 24.5686V22.6062L18.8726 23.9553V25.9791C18.8726 26.4697 19.1163 26.9603 19.6037 27.2669L24.5384 30.1492C24.9649 30.3945 25.5132 30.3945 26.0005 30.1492L30.9353 27.2669C31.3617 27.0216 31.6663 26.531 31.6663 25.9791V20.1532C31.6663 19.6625 31.4226 19.1719 30.9353 18.8653L26.0005 15.983Z" fill="#8247E5"/>
</svg>
