<svg width="24" height="24" viewBox="0 0 24 24" fill="none" xmlns="http://www.w3.org/2000/svg">
<rect width="24" height="24" fill="white" fill-opacity="0.01" style="mix-blend-mode:multiply"/>
<path d="M22.5 21.4394L18.9836 17.9231C19.9235 16.7135 20.3669 15.1911 20.2236 13.666C20.0804 12.1409 19.3612 10.7277 18.2126 9.7142C17.0639 8.70072 15.5722 8.16316 14.0411 8.21097C12.51 8.25878 11.0547 8.88837 9.97154 9.97154C8.88837 11.0547 8.25878 12.51 8.21097 14.0411C8.16316 15.5722 8.70072 17.0639 9.7142 18.2126C10.7277 19.3612 12.1409 20.0804 13.666 20.2236C15.1911 20.3669 16.7135 19.9235 17.9231 18.9836L21.4394 22.5L22.5 21.4394ZM14.25 18.75C13.36 18.75 12.49 18.4861 11.7499 17.9916C11.0099 17.4971 10.4331 16.7943 10.0925 15.9721C9.75195 15.1498 9.66283 14.245 9.83647 13.3721C10.0101 12.4992 10.4387 11.6974 11.068 11.068C11.6974 10.4387 12.4992 10.0101 13.3721 9.83647C14.245 9.66283 15.1498 9.75195 15.9721 10.0925C16.7943 10.4331 17.4971 11.0099 17.9916 11.7499C18.4861 12.49 18.75 13.36 18.75 14.25C18.7487 15.4431 18.2742 16.5869 17.4305 17.4305C16.5869 18.2742 15.4431 18.7487 14.25 18.75Z" fill="white"/>
<path d="M7.5 9H1.5V10.5H7.5V9Z" fill="white"/>
<path d="M13.5 1.5H1.5V3H13.5V1.5Z" fill="white"/>
<path d="M13.5 5.25H1.5V6.75H13.5V5.25Z" fill="white"/>
</svg>
