<svg width="18" height="18" viewBox="0 0 18 18" fill="none" xmlns="http://www.w3.org/2000/svg">
<rect width="18" height="18" fill="white" fill-opacity="0.01" style="mix-blend-mode:multiply"/>
<path d="M16.3125 15.517L12.0645 11.2689C13.0852 10.0434 13.5943 8.47157 13.4856 6.88034C13.377 5.28912 12.6591 3.80103 11.4812 2.72564C10.3034 1.65024 8.75628 1.07035 7.16177 1.10658C5.56725 1.14282 4.04808 1.79239 2.9203 2.92018C1.79251 4.04796 1.14294 5.56713 1.1067 7.16164C1.07047 8.75616 1.65037 10.3033 2.72576 11.4811C3.80115 12.659 5.28924 13.3769 6.88047 13.4855C8.47169 13.5941 10.0435 13.0851 11.269 12.0643L15.5171 16.3124L16.3125 15.517ZM2.25001 7.31239C2.25001 6.31112 2.54692 5.33234 3.1032 4.49981C3.65947 3.66729 4.45013 3.01842 5.37518 2.63525C6.30023 2.25208 7.31813 2.15183 8.30016 2.34716C9.28218 2.5425 10.1842 3.02466 10.8922 3.73266C11.6002 4.44066 12.0824 5.34272 12.2777 6.32474C12.4731 7.30677 12.3728 8.32467 11.9897 9.24972C11.6065 10.1748 10.9576 10.9654 10.1251 11.5217C9.29256 12.078 8.31378 12.3749 7.31251 12.3749C5.97031 12.3734 4.68351 11.8396 3.73443 10.8905C2.78535 9.94139 2.2515 8.65459 2.25001 7.31239Z" fill="white"/>
</svg>
