<svg width="18" height="18" viewBox="0 0 18 18" fill="none" xmlns="http://www.w3.org/2000/svg">
<rect width="18" height="18" fill="white" fill-opacity="0.01" style="mix-blend-mode:multiply"/>
<path d="M2.81128 2.01795L2.01593 2.81358L3.93738 4.73436L4.73274 3.93873L2.81128 2.01795Z" fill="white"/>
<path d="M14.0602 13.2626L13.2646 14.0579L15.1853 15.9794L15.981 15.184L14.0602 13.2626Z" fill="white"/>
<path d="M7.3125 1.125H6.1875V3.375H7.3125V1.125Z" fill="white"/>
<path d="M3.375 6.1875H1.125V7.3125H3.375V6.1875Z" fill="white"/>
<path d="M16.875 10.6875H14.625V11.8125H16.875V10.6875Z" fill="white"/>
<path d="M11.8125 14.625H10.6875V16.875H11.8125V14.625Z" fill="white"/>
<path d="M9.32625 11.8519L7.23938 13.9444C7.03033 14.1534 6.78215 14.3192 6.50902 14.4324C6.23588 14.5455 5.94314 14.6038 5.6475 14.6038C5.35186 14.6038 5.05912 14.5455 4.78598 14.4324C4.51285 14.3192 4.26467 14.1534 4.05562 13.9444C3.63343 13.5222 3.39625 12.9496 3.39625 12.3525C3.39625 11.7554 3.63343 11.1828 4.05562 10.7606L6.14813 8.66813L5.34938 7.875L3.2625 9.9675C2.94225 10.2792 2.6871 10.6514 2.51184 11.0625C2.33659 11.4736 2.24473 11.9154 2.24159 12.3623C2.23845 12.8092 2.32409 13.2523 2.49355 13.6658C2.66301 14.0793 2.91291 14.4551 3.22875 14.7712C3.54411 15.0841 3.91811 15.3315 4.32932 15.4995C4.74052 15.6674 5.18083 15.7526 5.625 15.75C6.07689 15.7504 6.52437 15.6612 6.9415 15.4874C7.35863 15.3136 7.73711 15.0587 8.055 14.7375L10.125 12.6506L9.32625 11.8519Z" fill="white"/>
<path d="M8.66813 6.14813L10.7606 4.05562C10.9697 3.84658 11.2178 3.68075 11.491 3.56762C11.7641 3.45448 12.0569 3.39625 12.3525 3.39625C12.6481 3.39625 12.9409 3.45448 13.214 3.56762C13.4872 3.68075 13.7353 3.84658 13.9444 4.05562C14.1534 4.26467 14.3192 4.51285 14.4324 4.78598C14.5455 5.05912 14.6038 5.35186 14.6038 5.6475C14.6038 5.94314 14.5455 6.23588 14.4324 6.50902C14.3192 6.78215 14.1534 7.03033 13.9444 7.23938L11.8519 9.33187L12.6506 10.125L14.7375 8.0325C15.0578 7.7208 15.3129 7.34859 15.4882 6.93749C15.6634 6.52638 15.7553 6.08457 15.7584 5.63768C15.7616 5.19079 15.6759 4.74773 15.5064 4.3342C15.337 3.92068 15.0871 3.54492 14.7712 3.22875C14.4559 2.91595 14.0819 2.66848 13.6707 2.50052C13.2595 2.33257 12.8192 2.24743 12.375 2.25C11.9231 2.24957 11.4756 2.33884 11.0585 2.51264C10.6414 2.68645 10.2629 2.94133 9.945 3.2625L7.875 5.34938L8.66813 6.14813Z" fill="white"/>
</svg>
