<svg width="18" height="18" viewBox="0 0 18 18" fill="none" xmlns="http://www.w3.org/2000/svg">
<path d="M9 18C13.9875 18 18 13.9875 18 9C18 4.01247 13.9875 0 9 0C4.01247 0 0 4.01247 0 9C0 13.9875 4.01247 18 9 18Z" fill="#2775CA"/>
<path d="M11.4752 10.4252C11.4752 9.11273 10.6877 8.66272 9.11267 8.47526C7.98767 8.32523 7.76267 8.02526 7.76267 7.5002C7.76267 6.97514 8.1377 6.63773 8.88767 6.63773C9.56267 6.63773 9.9377 6.86273 10.1252 7.42523C10.1627 7.53773 10.2752 7.6127 10.3877 7.6127H10.9876C11.1377 7.6127 11.2502 7.5002 11.2502 7.35026V7.31273C11.1001 6.4877 10.4251 5.85023 9.56267 5.77526V4.87526C9.56267 4.72523 9.45017 4.61273 9.2627 4.5752H8.7002C8.55017 4.5752 8.43767 4.6877 8.40014 4.87526V5.73773C7.27514 5.88776 6.5627 6.63773 6.5627 7.57526C6.5627 8.81276 7.31267 9.3002 8.88767 9.48776C9.9377 9.67523 10.2752 9.90023 10.2752 10.5003C10.2752 11.1003 9.75014 11.5128 9.0377 11.5128C8.06264 11.5128 7.72514 11.1002 7.61264 10.5377C7.5752 10.3878 7.4627 10.3127 7.3502 10.3127H6.71264C6.5627 10.3127 6.4502 10.4252 6.4502 10.5752V10.6128C6.60014 11.5502 7.20017 12.2252 8.43767 12.4128V13.3128C8.43767 13.4627 8.55017 13.5752 8.73764 13.6127H9.30014C9.45017 13.6127 9.56267 13.5002 9.6002 13.3128V12.4128C10.7252 12.2252 11.4752 11.4377 11.4752 10.4252Z" fill="white"/>
<path d="M10.7246 2.8125C10.762 2.66247 10.9125 2.58714 11.0625 2.66211C13.1248 3.33708 14.7751 4.94956 15.4502 7.08691C16.5752 10.6494 14.625 14.4375 11.0625 15.5625C11.025 15.5999 10.9496 15.5996 10.9121 15.5996C10.7623 15.5621 10.6875 15.4497 10.6875 15.2998V14.7744C10.6876 14.5871 10.7622 14.4743 10.9121 14.3994C12.4495 13.8369 13.6875 12.6374 14.25 11.0625C15.3376 8.17494 13.8371 4.91224 10.9121 3.8623C10.7997 3.7872 10.6875 3.63724 10.6875 3.4873V2.96191C10.6875 2.8873 10.6874 2.84987 10.7246 2.8125ZM7.08691 2.625C7.23694 2.66244 7.3125 2.77477 7.3125 2.9248V3.4502C7.31239 3.6375 7.23683 3.75028 7.08691 3.8252C5.54975 4.38776 4.31246 5.58738 3.75 7.16211C2.66249 10.0495 4.16219 13.3122 7.08691 14.3623C7.19941 14.4374 7.3125 14.5877 7.3125 14.7002V15.2246C7.3125 15.2996 7.31194 15.3376 7.27441 15.375C7.23684 15.5248 7.08742 15.5993 6.9375 15.5244C4.83764 14.8495 3.22487 13.2375 2.5498 11.1377C1.4248 7.57523 3.37503 3.78711 6.9375 2.66211C6.97492 2.62498 7.04928 2.625 7.08691 2.625Z" fill="white"/>
</svg>
