<svg width="16" height="16" viewBox="0 0 16 16" fill="none" xmlns="http://www.w3.org/2000/svg">
<path d="M8.00133 1.24156e-05C6.12087 -0.00304107 4.29954 0.657345 2.85801 1.86493H13.1434C11.7024 0.657132 9.88146 -0.00330213 8.00133 1.24156e-05ZM8.00133 16C9.86409 16.0034 11.6693 15.3552 13.1043 14.1674H2.89709C4.33267 15.3549 6.13824 16.0032 8.00133 16ZM11.8201 4.06132H14.9759C14.7159 3.6033 14.4117 3.17185 14.0677 2.77313H1.94037C1.43438 3.35627 1.01587 4.0099 0.697993 4.7135H11.3552L11.8201 4.06132ZM7.92453 8.47026H0.00134674C0.0393454 9.12939 0.159296 9.78119 0.358429 10.4106H7.18341L7.65371 9.74902H15.8208C15.9149 9.32833 15.9749 8.90067 16 8.47026H7.92453ZM9.70725 6.9045H15.9394C15.8804 6.46785 15.7849 6.03695 15.6537 5.6163H0.347651C0.151799 6.24619 0.0350202 6.89799 0 7.55667H9.24375L9.70725 6.9045ZM1.96328 13.2592H5.13659L5.60014 12.6071H14.5515C14.8388 12.2019 15.0874 11.7706 15.2939 11.3188H0.708773C1.03062 12.0231 1.45322 12.6767 1.96328 13.2592Z" fill="#171717"/>
</svg>
